<svg width="249" height="49" viewBox="0 0 249 49" fill="none" xmlns="http://www.w3.org/2000/svg">
<path d="M17.0312 48.625C12.0729 48.625 8.03125 47.1042 4.90625 44.0625C1.80208 41.0208 0.25 36.9688 0.25 31.9062V31.0312C0.25 27.6354 0.90625 24.6042 2.21875 21.9375C3.53125 19.25 5.38542 17.1875 7.78125 15.75C10.1979 14.2917 12.9479 13.5625 16.0312 13.5625C20.6562 13.5625 24.2917 15.0208 26.9375 17.9375C29.6042 20.8542 30.9375 24.9896 30.9375 30.3438V34.0312H9.40625C9.69792 36.2396 10.5729 38.0104 12.0312 39.3438C13.5104 40.6771 15.375 41.3438 17.625 41.3438C21.1042 41.3438 23.8229 40.0833 25.7812 37.5625L30.2188 42.5312C28.8646 44.4479 27.0312 45.9479 24.7188 47.0312C22.4062 48.0938 19.8438 48.625 17.0312 48.625ZM16 20.875C14.2083 20.875 12.75 21.4792 11.625 22.6875C10.5208 23.8958 9.8125 25.625 9.5 27.875H22.0625V27.1562C22.0208 25.1562 21.4792 23.6146 20.4375 22.5312C19.3958 21.4271 17.9167 20.875 16 20.875ZM46.4688 40.7188H63V48H34.9375V42.5L50.8438 21.5H35.4062V14.1875H62.5V19.5312L46.4688 40.7188ZM104.562 27.7188C104.562 31.9062 103.833 35.5833 102.375 38.75C100.938 41.9167 98.875 44.3542 96.1875 46.0625C93.5 47.7708 90.3958 48.625 86.875 48.625C81.5625 48.625 77.2708 46.7292 74 42.9375C70.7292 39.125 69.0938 33.9896 69.0938 27.5312V22.8438C69.0938 18.6979 69.8229 15.0312 71.2812 11.8438C72.7604 8.63542 74.8438 6.17708 77.5312 4.46875C80.2188 2.73958 83.3125 1.875 86.8125 1.875C90.3125 1.875 93.3958 2.71875 96.0625 4.40625C98.75 6.09375 100.823 8.47917 102.281 11.5625C103.74 14.6458 104.5 18.2188 104.562 22.2812V27.7188ZM100.719 22.7812C100.719 17.3021 99.4792 13.0104 97 9.90625C94.5208 6.80208 91.125 5.25 86.8125 5.25C82.5833 5.25 79.2083 6.8125 76.6875 9.9375C74.1875 13.0417 72.9375 17.3854 72.9375 22.9688V27.7188C72.9375 33.1146 74.1875 37.3958 76.6875 40.5625C79.1875 43.7083 82.5833 45.2812 86.875 45.2812C91.2292 45.2812 94.625 43.7292 97.0625 40.625C99.5 37.5 100.719 33.1562 100.719 27.5938V22.7812ZM129 17.375C128.208 17.2292 127.365 17.1562 126.469 17.1562C124.135 17.1562 122.156 17.8125 120.531 19.125C118.927 20.4167 117.781 22.3021 117.094 24.7812V48H113.375V14.1875H117.031L117.094 19.5625C119.073 15.5625 122.25 13.5625 126.625 13.5625C127.667 13.5625 128.49 13.6979 129.094 13.9688L129 17.375ZM132.812 30.7812C132.812 25.5312 133.979 21.3542 136.312 18.25C138.667 15.125 141.854 13.5625 145.875 13.5625C150.438 13.5625 153.917 15.3646 156.312 18.9688V0H160.031V48H156.531L156.375 43.5C153.979 46.9167 150.458 48.625 145.812 48.625C141.917 48.625 138.771 47.0625 136.375 43.9375C134 40.7917 132.812 36.5521 132.812 31.2188V30.7812ZM136.594 31.4375C136.594 35.75 137.458 39.1562 139.188 41.6562C140.917 44.1354 143.354 45.375 146.5 45.375C151.104 45.375 154.375 43.3438 156.312 39.2812V23.4062C154.375 19.0104 151.125 16.8125 146.562 16.8125C143.417 16.8125 140.969 18.0521 139.219 20.5312C137.469 22.9896 136.594 26.625 136.594 31.4375ZM182.969 48.625C180.094 48.625 177.49 47.9167 175.156 46.5C172.844 45.0833 171.042 43.1146 169.75 40.5938C168.458 38.0521 167.812 35.2083 167.812 32.0625V30.7188C167.812 27.4688 168.438 24.5417 169.688 21.9375C170.958 19.3333 172.719 17.2917 174.969 15.8125C177.219 14.3125 179.656 13.5625 182.281 13.5625C186.385 13.5625 189.635 14.9688 192.031 17.7812C194.448 20.5729 195.656 24.3958 195.656 29.25V31.3438H171.531V32.0625C171.531 35.8958 172.625 39.0938 174.812 41.6562C177.021 44.1979 179.792 45.4688 183.125 45.4688C185.125 45.4688 186.885 45.1042 188.406 44.375C189.948 43.6458 191.344 42.4792 192.594 40.875L194.938 42.6562C192.188 46.6354 188.198 48.625 182.969 48.625ZM182.281 16.75C179.469 16.75 177.094 17.7812 175.156 19.8438C173.24 21.9062 172.073 24.6771 171.656 28.1562H191.938V27.75C191.833 24.5 190.906 21.8542 189.156 19.8125C187.406 17.7708 185.115 16.75 182.281 16.75ZM218.562 17.375C217.771 17.2292 216.927 17.1562 216.031 17.1562C213.698 17.1562 211.719 17.8125 210.094 19.125C208.49 20.4167 207.344 22.3021 206.656 24.7812V48H202.938V14.1875H206.594L206.656 19.5625C208.635 15.5625 211.812 13.5625 216.188 13.5625C217.229 13.5625 218.052 13.6979 218.656 13.9688L218.562 17.375ZM244.75 39.4062C244.75 37.5521 244 36.0625 242.5 34.9375C241.021 33.8125 238.781 32.9375 235.781 32.3125C232.781 31.6667 230.448 30.9375 228.781 30.125C227.135 29.2917 225.906 28.2812 225.094 27.0938C224.302 25.9062 223.906 24.4688 223.906 22.7812C223.906 20.1146 225.021 17.9167 227.25 16.1875C229.479 14.4375 232.333 13.5625 235.812 13.5625C239.583 13.5625 242.604 14.5 244.875 16.375C247.167 18.2292 248.312 20.6562 248.312 23.6562H244.562C244.562 21.6771 243.729 20.0312 242.062 18.7188C240.417 17.4062 238.333 16.75 235.812 16.75C233.354 16.75 231.375 17.3021 229.875 18.4062C228.396 19.4896 227.656 20.9062 227.656 22.6562C227.656 24.3438 228.271 25.6562 229.5 26.5938C230.75 27.5104 233.01 28.3542 236.281 29.125C239.573 29.8958 242.031 30.7188 243.656 31.5938C245.302 32.4688 246.521 33.5208 247.312 34.75C248.104 35.9792 248.5 37.4688 248.5 39.2188C248.5 42.0729 247.344 44.3542 245.031 46.0625C242.74 47.7708 239.74 48.625 236.031 48.625C232.094 48.625 228.896 47.6771 226.438 45.7812C224 43.8646 222.781 41.4479 222.781 38.5312H226.531C226.677 40.7188 227.594 42.4271 229.281 43.6562C230.99 44.8646 233.24 45.4688 236.031 45.4688C238.635 45.4688 240.74 44.8958 242.344 43.75C243.948 42.6042 244.75 41.1562 244.75 39.4062Z" fill="black"/>
</svg>
