<svg width="317" height="45" viewBox="0 0 317 45" fill="none" xmlns="http://www.w3.org/2000/svg">
<path d="M5.48438 31.3203H21.6562V35H0.960938V0.875H5.48438V31.3203ZM24.9609 22.0859C24.9609 19.6016 25.4453 17.3672 26.4141 15.3828C27.3984 13.3984 28.7578 11.8672 30.4922 10.7891C32.2422 9.71094 34.2344 9.17188 36.4688 9.17188C39.9219 9.17188 42.7109 10.3672 44.8359 12.7578C46.9766 15.1484 48.0469 18.3281 48.0469 22.2969V22.6016C48.0469 25.0703 47.5703 27.2891 46.6172 29.2578C45.6797 31.2109 44.3281 32.7344 42.5625 33.8281C40.8125 34.9219 38.7969 35.4688 36.5156 35.4688C33.0781 35.4688 30.2891 34.2734 28.1484 31.8828C26.0234 29.4922 24.9609 26.3281 24.9609 22.3906V22.0859ZM29.3203 22.6016C29.3203 25.4141 29.9688 27.6719 31.2656 29.375C32.5781 31.0781 34.3281 31.9297 36.5156 31.9297C38.7188 31.9297 40.4688 31.0703 41.7656 29.3516C43.0625 27.6172 43.7109 25.1953 43.7109 22.0859C43.7109 19.3047 43.0469 17.0547 41.7188 15.3359C40.4062 13.6016 38.6562 12.7344 36.4688 12.7344C34.3281 12.7344 32.6016 13.5859 31.2891 15.2891C29.9766 16.9922 29.3203 19.4297 29.3203 22.6016ZM52.4531 22.1094C52.4531 18.1562 53.3672 15.0156 55.1953 12.6875C57.0234 10.3438 59.4453 9.17188 62.4609 9.17188C65.5547 9.17188 67.9688 10.2656 69.7031 12.4531L69.9141 9.64062H73.875V34.3906C73.875 37.6719 72.8984 40.2578 70.9453 42.1484C69.0078 44.0391 66.3984 44.9844 63.1172 44.9844C61.2891 44.9844 59.5 44.5938 57.75 43.8125C56 43.0312 54.6641 41.9609 53.7422 40.6016L55.9922 38C57.8516 40.2969 60.125 41.4453 62.8125 41.4453C64.9219 41.4453 66.5625 40.8516 67.7344 39.6641C68.9219 38.4766 69.5156 36.8047 69.5156 34.6484V32.4688C67.7812 34.4688 65.4141 35.4688 62.4141 35.4688C59.4453 35.4688 57.0391 34.2734 55.1953 31.8828C53.3672 29.4922 52.4531 26.2344 52.4531 22.1094ZM56.8125 22.6016C56.8125 25.4609 57.3984 27.7109 58.5703 29.3516C59.7422 30.9766 61.3828 31.7891 63.4922 31.7891C66.2266 31.7891 68.2344 30.5469 69.5156 28.0625V16.4844C68.1875 14.0625 66.1953 12.8516 63.5391 12.8516C61.4297 12.8516 59.7812 13.6719 58.5938 15.3125C57.4062 16.9531 56.8125 19.3828 56.8125 22.6016ZM79.2891 22.0859C79.2891 19.6016 79.7734 17.3672 80.7422 15.3828C81.7266 13.3984 83.0859 11.8672 84.8203 10.7891C86.5703 9.71094 88.5625 9.17188 90.7969 9.17188C94.25 9.17188 97.0391 10.3672 99.1641 12.7578C101.305 15.1484 102.375 18.3281 102.375 22.2969V22.6016C102.375 25.0703 101.898 27.2891 100.945 29.2578C100.008 31.2109 98.6562 32.7344 96.8906 33.8281C95.1406 34.9219 93.125 35.4688 90.8438 35.4688C87.4062 35.4688 84.6172 34.2734 82.4766 31.8828C80.3516 29.4922 79.2891 26.3281 79.2891 22.3906V22.0859ZM83.6484 22.6016C83.6484 25.4141 84.2969 27.6719 85.5938 29.375C86.9062 31.0781 88.6562 31.9297 90.8438 31.9297C93.0469 31.9297 94.7969 31.0703 96.0938 29.3516C97.3906 27.6172 98.0391 25.1953 98.0391 22.0859C98.0391 19.3047 97.375 17.0547 96.0469 15.3359C94.7344 13.6016 92.9844 12.7344 90.7969 12.7344C88.6562 12.7344 86.9297 13.5859 85.6172 15.2891C84.3047 16.9922 83.6484 19.4297 83.6484 22.6016ZM112.992 21.6406V35H108.492V0.875H121.078C124.812 0.875 127.734 1.82813 129.844 3.73438C131.969 5.64062 133.031 8.16406 133.031 11.3047C133.031 14.6172 131.992 17.1719 129.914 18.9688C127.852 20.75 124.891 21.6406 121.031 21.6406H112.992ZM112.992 17.9609H121.078C123.484 17.9609 125.328 17.3984 126.609 16.2734C127.891 15.1328 128.531 13.4922 128.531 11.3516C128.531 9.32031 127.891 7.69531 126.609 6.47656C125.328 5.25781 123.57 4.625 121.336 4.57812H112.992V17.9609ZM150.352 13.5312C149.695 13.4219 148.984 13.3672 148.219 13.3672C145.375 13.3672 143.445 14.5781 142.43 17V35H138.094V9.64062H142.312L142.383 12.5703C143.805 10.3047 145.82 9.17188 148.43 9.17188C149.273 9.17188 149.914 9.28125 150.352 9.5V13.5312ZM152.742 22.0859C152.742 19.6016 153.227 17.3672 154.195 15.3828C155.18 13.3984 156.539 11.8672 158.273 10.7891C160.023 9.71094 162.016 9.17188 164.25 9.17188C167.703 9.17188 170.492 10.3672 172.617 12.7578C174.758 15.1484 175.828 18.3281 175.828 22.2969V22.6016C175.828 25.0703 175.352 27.2891 174.398 29.2578C173.461 31.2109 172.109 32.7344 170.344 33.8281C168.594 34.9219 166.578 35.4688 164.297 35.4688C160.859 35.4688 158.07 34.2734 155.93 31.8828C153.805 29.4922 152.742 26.3281 152.742 22.3906V22.0859ZM157.102 22.6016C157.102 25.4141 157.75 27.6719 159.047 29.375C160.359 31.0781 162.109 31.9297 164.297 31.9297C166.5 31.9297 168.25 31.0703 169.547 29.3516C170.844 27.6172 171.492 25.1953 171.492 22.0859C171.492 19.3047 170.828 17.0547 169.5 15.3359C168.188 13.6016 166.438 12.7344 164.25 12.7344C162.109 12.7344 160.383 13.5859 159.07 15.2891C157.758 16.9922 157.102 19.4297 157.102 22.6016ZM189.258 29.1172L195.539 9.64062H199.969L190.875 35H187.57L178.383 9.64062H182.812L189.258 29.1172ZM208.852 35H204.516V9.64062H208.852V35ZM204.164 2.91406C204.164 2.21094 204.375 1.61719 204.797 1.13281C205.234 0.648437 205.875 0.40625 206.719 0.40625C207.562 0.40625 208.203 0.648437 208.641 1.13281C209.078 1.61719 209.297 2.21094 209.297 2.91406C209.297 3.61719 209.078 4.20312 208.641 4.67188C208.203 5.14062 207.562 5.375 206.719 5.375C205.875 5.375 205.234 5.14062 204.797 4.67188C204.375 4.20312 204.164 3.61719 204.164 2.91406ZM230.578 28.2734C230.578 27.1016 230.133 26.1953 229.242 25.5547C228.367 24.8984 226.828 24.3359 224.625 23.8672C222.438 23.3984 220.695 22.8359 219.398 22.1797C218.117 21.5234 217.164 20.7422 216.539 19.8359C215.93 18.9297 215.625 17.8516 215.625 16.6016C215.625 14.5234 216.5 12.7656 218.25 11.3281C220.016 9.89062 222.266 9.17188 225 9.17188C227.875 9.17188 230.203 9.91406 231.984 11.3984C233.781 12.8828 234.68 14.7812 234.68 17.0938H230.32C230.32 15.9062 229.812 14.8828 228.797 14.0234C227.797 13.1641 226.531 12.7344 225 12.7344C223.422 12.7344 222.188 13.0781 221.297 13.7656C220.406 14.4531 219.961 15.3516 219.961 16.4609C219.961 17.5078 220.375 18.2969 221.203 18.8281C222.031 19.3594 223.523 19.8672 225.68 20.3516C227.852 20.8359 229.609 21.4141 230.953 22.0859C232.297 22.7578 233.289 23.5703 233.93 24.5234C234.586 25.4609 234.914 26.6094 234.914 27.9688C234.914 30.2344 234.008 32.0547 232.195 33.4297C230.383 34.7891 228.031 35.4688 225.141 35.4688C223.109 35.4688 221.312 35.1094 219.75 34.3906C218.188 33.6719 216.961 32.6719 216.07 31.3906C215.195 30.0938 214.758 28.6953 214.758 27.1953H219.094C219.172 28.6484 219.75 29.8047 220.828 30.6641C221.922 31.5078 223.359 31.9297 225.141 31.9297C226.781 31.9297 228.094 31.6016 229.078 30.9453C230.078 30.2734 230.578 29.3828 230.578 28.2734ZM239.414 22.0859C239.414 19.6016 239.898 17.3672 240.867 15.3828C241.852 13.3984 243.211 11.8672 244.945 10.7891C246.695 9.71094 248.688 9.17188 250.922 9.17188C254.375 9.17188 257.164 10.3672 259.289 12.7578C261.43 15.1484 262.5 18.3281 262.5 22.2969V22.6016C262.5 25.0703 262.023 27.2891 261.07 29.2578C260.133 31.2109 258.781 32.7344 257.016 33.8281C255.266 34.9219 253.25 35.4688 250.969 35.4688C247.531 35.4688 244.742 34.2734 242.602 31.8828C240.477 29.4922 239.414 26.3281 239.414 22.3906V22.0859ZM243.773 22.6016C243.773 25.4141 244.422 27.6719 245.719 29.375C247.031 31.0781 248.781 31.9297 250.969 31.9297C253.172 31.9297 254.922 31.0703 256.219 29.3516C257.516 27.6172 258.164 25.1953 258.164 22.0859C258.164 19.3047 257.5 17.0547 256.172 15.3359C254.859 13.6016 253.109 12.7344 250.922 12.7344C248.781 12.7344 247.055 13.5859 245.742 15.2891C244.43 16.9922 243.773 19.4297 243.773 22.6016ZM280.195 13.5312C279.539 13.4219 278.828 13.3672 278.062 13.3672C275.219 13.3672 273.289 14.5781 272.273 17V35H267.938V9.64062H272.156L272.227 12.5703C273.648 10.3047 275.664 9.17188 278.273 9.17188C279.117 9.17188 279.758 9.28125 280.195 9.5V13.5312ZM288.914 35H284.578V9.64062H288.914V35ZM284.227 2.91406C284.227 2.21094 284.438 1.61719 284.859 1.13281C285.297 0.648437 285.938 0.40625 286.781 0.40625C287.625 0.40625 288.266 0.648437 288.703 1.13281C289.141 1.61719 289.359 2.21094 289.359 2.91406C289.359 3.61719 289.141 4.20312 288.703 4.67188C288.266 5.14062 287.625 5.375 286.781 5.375C285.938 5.375 285.297 5.14062 284.859 4.67188C284.438 4.20312 284.227 3.61719 284.227 2.91406ZM311.531 35C311.281 34.5 311.078 33.6094 310.922 32.3281C308.906 34.4219 306.5 35.4688 303.703 35.4688C301.203 35.4688 299.148 34.7656 297.539 33.3594C295.945 31.9375 295.148 30.1406 295.148 27.9688C295.148 25.3281 296.148 23.2812 298.148 21.8281C300.164 20.3594 302.992 19.625 306.633 19.625H310.852V17.6328C310.852 16.1172 310.398 14.9141 309.492 14.0234C308.586 13.1172 307.25 12.6641 305.484 12.6641C303.938 12.6641 302.641 13.0547 301.594 13.8359C300.547 14.6172 300.023 15.5625 300.023 16.6719H295.664C295.664 15.4062 296.109 14.1875 297 13.0156C297.906 11.8281 299.125 10.8906 300.656 10.2031C302.203 9.51562 303.898 9.17188 305.742 9.17188C308.664 9.17188 310.953 9.90625 312.609 11.375C314.266 12.8281 315.125 14.8359 315.188 17.3984V29.0703C315.188 31.3984 315.484 33.25 316.078 34.625V35H311.531ZM304.336 31.6953C305.695 31.6953 306.984 31.3438 308.203 30.6406C309.422 29.9375 310.305 29.0234 310.852 27.8984V22.6953H307.453C302.141 22.6953 299.484 24.25 299.484 27.3594C299.484 28.7188 299.938 29.7812 300.844 30.5469C301.75 31.3125 302.914 31.6953 304.336 31.6953Z" fill="black"/>
</svg>
